<svg width="512" height="512" viewBox="0 0 24 24" fill="none" xmlns="http://www.w3.org/2000/svg">
  <!-- Background Shield -->
  <path
    d="M12 2L4 5V11C4 16 7.5 20.5 12 22C16.5 20.5 20 16 20 11V5L12 2Z"
    fill="#0f172a"
    stroke="#334155"
    stroke-width="1.2"
  />

  <!-- Share Nodes -->
  <circle cx="8" cy="11" r="1.6" fill="#f1f5f9"/>
  <circle cx="15.5" cy="8" r="1.6" fill="#f1f5f9"/>
  <circle cx="15.5" cy="14.5" r="1.6" fill="#f1f5f9"/>

  <!-- Share Lines -->
  <path d="M9.3 10.4L14.1 8.9" stroke="#f1f5f9" stroke-width="1.4" stroke-linecap="round"/>
  <path d="M9.3 11.6L14.1 13.6" stroke="#f1f5f9" stroke-width="1.4" stroke-linecap="round"/>

  <!-- Lock Body -->
  <rect x="9" y="13.2" width="6" height="5" rx="1.4" fill="#3b82f6"/>

  <!-- Lock Shackle -->
  <path
    d="M10.5 13.2V11.8C10.5 10.6 11.4 9.8 12 9.8C12.6 9.8 13.5 10.6 13.5 11.8V13.2"
    stroke="#3b82f6"
    stroke-width="1.4"
    stroke-linecap="round"
  />

  <!-- Keyhole -->
  <circle cx="12" cy="15.8" r="0.7" fill="#0f172a"/>
</svg>